# Blender 4.5.3 LTS
# www.blender.org
mtllib blackboard.mtl
o Cube
v 0.755394 0.151871 3.267433
v 0.779741 2.764139 3.296009
v 0.745420 0.151872 -3.274904
v 0.769766 2.764140 -3.246328
v 0.601661 0.021263 3.462002
v 0.601661 2.907634 3.462002
v 0.601661 0.021264 -3.415241
v 0.601661 2.907635 -3.415241
v 0.706040 0.021264 -3.415241
v 0.706040 0.021263 3.462002
v 0.706040 2.907634 3.462002
v 0.706040 2.907635 -3.415241
vn 1.0000 -0.0093 -0.0015
vn -0.0000 -0.0000 -1.0000
vn -1.0000 -0.0000 -0.0000
vn -0.0000 -0.0000 1.0000
vn -0.0000 -1.0000 -0.0000
vn -0.0000 1.0000 -0.0000
vn 0.9468 -0.3218 -0.0007
vn 0.9463 -0.0059 0.3232
vn 0.9019 0.4319 -0.0007
vn 0.9486 -0.0026 -0.3164
vt 0.379567 0.004567
vt 0.620433 0.004567
vt 0.620433 0.245433
vt 0.379567 0.245433
vt 0.375000 0.250000
vt 0.625000 0.250000
vt 0.625000 0.500000
vt 0.375000 0.500000
vt 0.625000 0.750000
vt 0.375000 0.750000
vt 0.625000 1.000000
vt 0.375000 1.000000
vt 0.125000 0.500000
vt 0.125000 0.750000
vt 0.875000 0.500000
vt 0.875000 0.750000
vt 0.375000 0.000000
vt 0.625000 0.000000
s 1
usemtl Material.001
f 9/5/2 7/8/2 8/7/2 12/6/2
f 7/8/3 5/10/3 6/9/3 8/7/3
f 5/10/4 10/12/4 11/11/4 6/9/4
f 9/13/5 10/14/5 5/10/5 7/8/5
f 8/7/6 6/9/6 11/16/6 12/15/6
f 1/1/7 10/17/7 9/5/7 3/4/7
f 2/2/8 11/18/8 10/17/8 1/1/8
f 4/3/9 12/6/9 11/18/9 2/2/9
f 3/4/10 9/5/10 12/6/10 4/3/10
usemtl Material.003
f 1/1/1 3/4/1 4/3/1 2/2/1
