# Blender 4.5.3 LTS
# www.blender.org
mtllib school_desk.mtl
o Kursi_Cube.002
v 0.141247 0.002793 -0.189418
v 0.141247 0.451854 -0.189418
v 0.141247 0.002793 -0.218752
v 0.141247 0.451854 -0.218752
v 0.211549 0.002793 -0.189418
v 0.211549 0.451854 -0.189418
v 0.211549 0.002793 -0.218752
v 0.211549 0.451854 -0.218752
v -0.206689 0.002793 -0.189418
v -0.206689 0.836805 -0.189418
v -0.206689 0.002793 -0.218752
v -0.206689 0.836805 -0.218752
v -0.136388 0.002793 -0.189418
v -0.166661 0.836805 -0.189418
v -0.136388 0.002793 -0.218752
v -0.166661 0.836805 -0.218752
v 0.141247 0.002793 0.218351
v 0.141247 0.451916 0.218351
v 0.141247 0.002793 0.189017
v 0.141247 0.451916 0.189017
v 0.211549 0.002793 0.218351
v 0.211549 0.451916 0.218351
v 0.211549 0.002793 0.189017
v 0.211549 0.451916 0.189017
v -0.206689 0.002793 0.218351
v -0.206689 0.836805 0.218351
v -0.206689 0.002793 0.189017
v -0.206689 0.836805 0.189017
v -0.136388 0.002793 0.218351
v -0.166661 0.836805 0.218351
v -0.136388 0.002793 0.189017
v -0.166661 0.836805 0.189017
v -0.136388 0.645726 0.189017
v -0.136388 0.645726 -0.218752
v -0.136388 0.645726 0.218351
v -0.136388 0.645726 -0.189418
v -0.129472 0.436428 0.231479
v -0.129472 0.460994 0.231479
v -0.129472 0.436428 -0.232662
v -0.129472 0.460994 -0.232662
v 0.218376 0.436428 0.231479
v 0.218376 0.460994 0.231479
v 0.218376 0.436428 -0.232662
v 0.218376 0.460994 -0.232662
v -0.129472 0.436428 -0.188033
v -0.129472 0.460994 -0.188033
v -0.129472 0.436428 0.194113
v -0.129472 0.460994 0.194113
v -0.201605 0.460994 0.194113
v -0.201605 0.460994 -0.188033
v -0.201605 0.436428 -0.188033
v -0.201605 0.436428 0.194113
v -0.176574 0.854139 0.229232
v -0.140654 0.608636 0.229232
v -0.176574 0.854139 -0.229444
v -0.140654 0.608636 -0.229444
v -0.154438 0.857214 -0.229444
v -0.154438 0.857214 0.229232
v -0.118519 0.611710 0.229232
v -0.118519 0.611710 -0.229444
v -0.178049 0.084753 0.209110
v -0.178049 0.133080 0.209110
v -0.178049 0.084753 0.196454
v -0.178049 0.133080 0.196454
v 0.176998 0.084753 0.209110
v 0.176998 0.133080 0.209110
v 0.176998 0.084753 0.196454
v 0.176998 0.133080 0.196454
v -0.178049 0.084753 -0.194714
v -0.178049 0.133080 -0.194714
v -0.178049 0.084753 -0.207370
v -0.178049 0.133080 -0.207370
v 0.176998 0.084753 -0.194714
v 0.176998 0.133080 -0.194714
v 0.176998 0.084753 -0.207370
v 0.176998 0.133080 -0.207370
v 0.186531 0.152337 0.202765
v 0.186531 0.202441 0.202765
v 0.186531 0.152337 -0.195937
v 0.186531 0.202441 -0.195937
v 0.199938 0.152337 0.202765
v 0.199938 0.202441 0.202765
v 0.199938 0.152337 -0.195937
v 0.199938 0.202441 -0.195937
v -0.181402 0.453741 0.205561
v -0.181402 0.376750 0.205561
v -0.181402 0.453741 -0.213554
v -0.181402 0.376750 -0.213554
v -0.178903 0.453741 -0.213554
v -0.178903 0.453741 0.205561
v -0.178903 0.376750 0.205561
v -0.178903 0.376750 -0.213554
v 0.199672 0.453741 0.205561
v 0.199672 0.376750 0.205561
v 0.199672 0.453741 -0.213554
v 0.199672 0.376750 -0.213554
v 0.202171 0.453741 -0.213554
v 0.202171 0.453741 0.205561
v 0.202171 0.376750 0.205561
v 0.202171 0.376750 -0.213554
v 0.201020 0.453741 0.206617
v 0.201020 0.376750 0.206617
v -0.163401 0.453741 0.206617
v -0.163401 0.376750 0.206617
v -0.163401 0.453741 0.204117
v 0.201020 0.453741 0.204117
v 0.201020 0.376750 0.204118
v -0.163401 0.376750 0.204118
v 0.201020 0.453741 -0.207984
v 0.201020 0.376750 -0.207984
v -0.163401 0.453741 -0.207984
v -0.163401 0.376750 -0.207984
v -0.163401 0.453741 -0.210483
v 0.201020 0.453741 -0.210483
v 0.201020 0.376750 -0.210483
v -0.163401 0.376750 -0.210483
vn -1.0000 -0.0000 -0.0000
vn -0.0000 -0.0000 -1.0000
vn 1.0000 -0.0000 -0.0000
vn -0.0000 -0.0000 1.0000
vn -0.0000 -1.0000 -0.0000
vn -0.0000 1.0000 -0.0000
vn 0.9877 0.1565 -0.0000
vn -0.9895 -0.1448 -0.0000
vn 0.9895 0.1448 -0.0000
vn 0.1376 -0.9905 -0.0000
vn -0.1376 0.9905 -0.0000
vt 0.960929 0.783693
vt 0.628753 0.783693
vt 0.628753 0.761994
vt 0.960929 0.761994
vt 0.628753 0.709991
vt 0.960929 0.709991
vt 0.628753 0.688292
vt 0.960929 0.688292
vt 0.628753 0.636289
vt 0.960929 0.636289
vt 0.982628 0.636289
vt 0.982628 0.688292
vt 0.284438 0.864862
vt 0.899514 0.867698
vt 0.899414 0.889332
vt 0.284338 0.886495
vt 0.899025 0.919973
vt 0.757200 0.940026
vt 0.284203 0.939768
vt 0.758711 0.961619
vt 0.284203 0.961942
vt 0.284677 0.813016
vt 0.758834 0.815202
vt 0.899650 0.838178
vt 0.231062 0.939768
vt 0.231062 0.961942
vt 0.929311 0.915781
vt 0.932383 0.937976
vt 0.902097 0.942168
vt 0.960805 0.762148
vt 0.628582 0.762148
vt 0.628582 0.783847
vt 0.960805 0.783847
vt 0.960805 0.636444
vt 0.628582 0.636444
vt 0.628582 0.688447
vt 0.960805 0.688447
vt 0.628582 0.710146
vt 0.960804 0.710146
vt 0.982503 0.688447
vt 0.982503 0.636444
vt 0.284370 0.885811
vt 0.900196 0.888420
vt 0.900287 0.866759
vt 0.284462 0.864152
vt 0.900412 0.837203
vt 0.759417 0.814252
vt 0.284682 0.812242
vt 0.284257 0.960886
vt 0.759675 0.960886
vt 0.758083 0.939153
vt 0.284257 0.939196
vt 0.899810 0.919067
vt 0.232275 0.960886
vt 0.232275 0.939196
vt 0.902859 0.940778
vt 0.932484 0.936618
vt 0.929435 0.914907
vt 0.377919 0.325540
vt 0.377919 0.307368
vt 0.410932 0.307368
vt 0.410932 0.325540
vt 0.429104 0.307368
vt 0.410932 0.050061
vt 0.429104 0.050061
vt 0.049429 0.050061
vt 0.067601 0.050061
vt 0.067601 0.307368
vt 0.049429 0.307368
vt 0.145410 0.408687
vt 0.488742 0.408687
vt 0.488742 0.665995
vt 0.461102 0.665995
vt 0.461102 0.719353
vt 0.178423 0.719353
vt 0.178423 0.665995
vt 0.145410 0.665995
vt 0.377919 0.360726
vt 0.095241 0.360726
vt 0.095241 0.307368
vt 0.067601 0.031889
vt 0.410932 0.031888
vt 0.396091 0.307368
vt 0.396091 0.360726
vt 0.067601 0.325540
vt 0.095241 0.325540
vt 0.095241 0.378898
vt 0.377919 0.378898
vt 0.077069 0.307368
vt 0.077069 0.360726
vt 0.570122 0.408698
vt 0.909410 0.408698
vt 0.909410 0.592234
vt 0.570122 0.592234
vt 0.569320 0.591766
vt 0.569320 0.408230
vt 0.908608 0.408230
vt 0.908608 0.591766
vt 0.569320 0.391699
vt 0.908608 0.391699
vt 0.908608 0.608297
vt 0.569320 0.608297
vt 0.925139 0.408350
vt 0.925139 0.591886
vt 0.552789 0.591886
vt 0.552789 0.408350
vt 0.931927 0.297907
vt 0.896179 0.297907
vt 0.896179 0.035274
vt 0.931927 0.035274
vt 0.851069 0.035274
vt 0.886817 0.035274
vt 0.886817 0.297907
vt 0.851069 0.297907
vt 0.841707 0.297907
vt 0.841707 0.035274
vt 0.851186 0.035091
vt 0.886934 0.035091
vt 0.886934 0.297724
vt 0.851186 0.297724
vt 0.932044 0.297724
vt 0.896296 0.297724
vt 0.896296 0.035091
vt 0.932044 0.035091
vt 0.841824 0.297724
vt 0.841824 0.035091
vt 0.792322 0.328153
vt 0.755260 0.328153
vt 0.755260 0.033228
vt 0.792322 0.033228
vt 0.708280 0.033228
vt 0.745342 0.033228
vt 0.745342 0.328153
vt 0.708280 0.328153
vt 0.698363 0.033228
vt 0.698363 0.328153
vt 0.529838 0.342046
vt 0.529838 0.036685
vt 0.585933 0.036685
vt 0.585933 0.342046
vt 0.647356 0.342005
vt 0.591262 0.342005
vt 0.591262 0.036643
vt 0.647356 0.036643
vt 0.647721 0.036394
vt 0.647721 0.341755
vt 0.591626 0.341755
vt 0.591626 0.036394
vt 0.530203 0.036435
vt 0.586297 0.036435
vt 0.586297 0.341797
vt 0.530203 0.341797
vt 0.027999 0.961274
vt 0.027999 0.694972
vt 0.084260 0.694972
vt 0.084260 0.961274
vt 0.145169 0.961240
vt 0.088908 0.961240
vt 0.088908 0.694938
vt 0.145169 0.694938
vt 0.145276 0.695166
vt 0.145276 0.961468
vt 0.089015 0.961468
vt 0.089015 0.695166
vt 0.028107 0.695201
vt 0.084367 0.695201
vt 0.084367 0.961502
vt 0.028107 0.961502
vt 0.099519 0.712804
vt 0.099519 0.967098
vt 0.095081 0.967131
vt 0.095081 0.712837
s 1
usemtl Material.003
f 1/1/1 2/2/1 4/3/1 3/4/1
f 3/4/2 4/3/2 8/5/2 7/6/2
f 7/6/3 8/5/3 6/7/3 5/8/3
f 5/8/4 6/7/4 2/9/4 1/10/4
f 3/11/5 7/12/5 5/8/5 1/10/5
f 9/13/1 10/14/1 12/15/1 11/16/1
f 11/16/2 12/15/2 16/17/2 34/18/2 15/19/2
f 15/19/3 34/18/3 36/20/3 13/21/3
f 13/22/4 36/23/4 14/24/4 10/14/4 9/13/4
f 11/25/5 15/19/5 13/21/5 9/26/5
f 16/17/6 12/27/6 10/28/6 14/29/6
f 17/30/1 18/31/1 20/32/1 19/33/1
f 19/34/2 20/35/2 24/36/2 23/37/2
f 23/37/3 24/36/3 22/38/3 21/39/3
f 21/39/4 22/38/4 18/31/4 17/30/4
f 19/34/5 23/37/5 21/40/5 17/41/5
f 25/42/1 26/43/1 28/44/1 27/45/1
f 27/45/2 28/44/2 32/46/2 33/47/2 31/48/2
f 31/49/3 33/50/3 35/51/3 29/52/3
f 29/52/4 35/51/4 30/53/4 26/43/4 25/42/4
f 27/54/5 31/49/5 29/52/5 25/55/5
f 32/56/6 28/57/6 26/58/6 30/53/6
f 35/51/7 33/50/7 32/56/7 30/53/7
f 36/20/7 34/18/7 16/17/7 14/29/7
f 45/59/1 46/60/1 40/61/1 39/62/1
f 39/63/2 40/61/2 44/64/2 43/65/2
f 41/66/4 42/67/4 38/68/4 37/69/4
f 43/70/5 41/71/5 37/72/5 47/73/5 52/74/5 51/75/5 45/76/5 39/77/5
f 46/60/6 50/78/6 49/79/6 48/80/6 38/68/6 42/67/6 44/64/6 40/61/6
f 44/64/3 42/67/3 41/81/3 43/82/3
f 46/60/2 45/83/2 51/84/2 50/78/2
f 37/85/1 38/68/1 48/80/1 47/86/1
f 52/87/1 49/79/1 50/78/1 51/88/1
f 47/89/4 48/80/4 49/79/4 52/90/4
f 53/91/8 55/92/8 56/93/8 54/94/8
f 58/95/9 59/96/9 60/97/9 57/98/9
f 54/99/10 56/100/10 60/97/10 59/96/10
f 55/101/11 53/102/11 58/95/11 57/98/11
f 56/103/2 55/104/2 57/98/2 60/97/2
f 53/105/4 54/106/4 59/96/4 58/95/4
f 63/107/2 64/108/2 68/109/2 67/110/2
f 65/111/4 66/112/4 62/113/4 61/114/4
f 63/115/5 67/116/5 65/111/5 61/114/5
f 68/109/6 64/108/6 62/113/6 66/112/6
f 71/117/2 72/118/2 76/119/2 75/120/2
f 73/121/4 74/122/4 70/123/4 69/124/4
f 71/117/5 75/120/5 73/125/5 69/126/5
f 76/119/6 72/118/6 70/123/6 74/122/6
f 77/127/1 78/128/1 80/129/1 79/130/1
f 83/131/3 84/132/3 82/133/3 81/134/3
f 79/135/5 83/131/5 81/134/5 77/136/5
f 84/132/6 80/129/6 78/128/6 82/133/6
f 85/137/1 87/138/1 88/139/1 86/140/1
f 90/141/3 91/142/3 92/143/3 89/144/3
f 86/140/5 88/139/5 92/143/5 91/142/5
f 93/145/1 95/146/1 96/147/1 94/148/1
f 98/149/3 99/150/3 100/151/3 97/152/3
f 94/148/5 96/147/5 100/151/5 99/150/5
f 101/153/4 103/154/4 104/155/4 102/156/4
f 106/157/2 107/158/2 108/159/2 105/160/2
f 102/156/5 104/155/5 108/159/5 107/158/5
f 109/161/4 111/162/4 112/163/4 110/164/4
f 114/165/2 115/166/2 116/167/2 113/168/2
f 110/169/5 112/170/5 116/171/5 115/172/5
o Meja.001_Cube.001
v 0.220511 -0.045671 -0.277026
v 0.220511 0.714321 -0.277026
v 0.220511 -0.045671 -0.304871
v 0.220511 0.714321 -0.304871
v 0.292577 -0.045671 -0.277026
v 0.292577 0.714321 -0.277026
v 0.292577 -0.045671 -0.304871
v 0.292577 0.714321 -0.304871
v 0.645444 -0.045671 -0.277026
v 0.645444 0.714321 -0.277026
v 0.645444 -0.045671 -0.304871
v 0.645444 0.714321 -0.304871
v 0.717510 -0.045671 -0.277026
v 0.717510 0.714321 -0.277026
v 0.717510 -0.045671 -0.304871
v 0.717510 0.714321 -0.304871
v 0.220511 -0.045671 0.303228
v 0.220511 0.714321 0.303228
v 0.220511 -0.045671 0.275383
v 0.220511 0.714321 0.275383
v 0.292577 -0.045671 0.303228
v 0.292577 0.714321 0.303228
v 0.292577 -0.045671 0.275383
v 0.292577 0.714321 0.275383
v 0.645444 -0.045671 0.303228
v 0.645444 0.714321 0.303228
v 0.645444 -0.045671 0.275383
v 0.645444 0.714321 0.275383
v 0.717510 -0.045671 0.303228
v 0.717510 0.714321 0.303228
v 0.717510 -0.045671 0.275383
v 0.717510 0.714321 0.275383
v 0.293040 0.028001 -0.277608
v 0.293040 0.090983 -0.277608
v 0.293040 0.028001 -0.298077
v 0.293040 0.090983 -0.298077
v 0.643592 0.028001 -0.277608
v 0.643592 0.090983 -0.277608
v 0.643592 0.028001 -0.298077
v 0.643592 0.090983 -0.298077
v 0.293040 0.028001 0.298567
v 0.293040 0.090983 0.298567
v 0.293040 0.028001 0.278099
v 0.293040 0.090983 0.278099
v 0.643592 0.028001 0.298567
v 0.643592 0.090983 0.298567
v 0.643592 0.028001 0.278099
v 0.643592 0.090983 0.278099
v 0.202057 0.701292 0.351180
v 0.202057 0.721914 0.351180
v 0.202057 0.701292 -0.349726
v 0.202057 0.721914 -0.349726
v 0.751045 0.701292 0.351180
v 0.751045 0.721914 0.351180
v 0.751045 0.701292 -0.349726
v 0.751045 0.721914 -0.349726
v 0.245417 0.574947 0.285312
v 0.245417 0.582629 0.285312
v 0.245417 0.574947 -0.287877
v 0.245417 0.582629 -0.287877
v 0.690566 0.574947 0.285312
v 0.690566 0.582629 0.285312
v 0.690566 0.574947 -0.287877
v 0.690566 0.582629 -0.287877
v 0.698404 0.708508 0.281852
v 0.698404 0.308343 0.281852
v 0.698404 0.708508 -0.283889
v 0.698404 0.308343 -0.283889
v 0.284874 0.710702 0.296170
v 0.284874 0.464639 0.296170
v 0.650132 0.710702 0.296170
v 0.650132 0.464639 0.296169
v 0.650132 0.710702 -0.290568
v 0.650132 0.464639 -0.290568
v 0.284874 0.710702 -0.290568
v 0.284874 0.464639 -0.290568
vn -1.0000 -0.0000 -0.0000
vn -0.0000 -0.0000 -1.0000
vn 1.0000 -0.0000 -0.0000
vn -0.0000 -0.0000 1.0000
vn -0.0000 -1.0000 -0.0000
vn -0.0000 1.0000 -0.0000
vt 0.576507 0.844453
vt 0.019772 0.844452
vt 0.019772 0.824055
vt 0.576507 0.824055
vt 0.019772 0.771263
vt 0.576507 0.771263
vt 0.019772 0.750865
vt 0.576507 0.750866
vt 0.576507 0.897244
vt 0.019772 0.897244
vt 0.596905 0.844453
vt 0.596905 0.897244
vt 0.576558 0.989727
vt 0.021129 0.989727
vt 0.021129 0.969378
vt 0.576558 0.969377
vt 0.021129 0.916709
vt 0.576558 0.916709
vt 0.021129 0.896359
vt 0.576558 0.896360
vt 0.021129 0.843691
vt 0.576558 0.843692
vt 0.596908 0.843692
vt 0.596908 0.896360
vt 0.575784 0.916686
vt 0.018329 0.916686
vt 0.018329 0.896262
vt 0.575784 0.896262
vt 0.018329 0.843401
vt 0.575784 0.843402
vt 0.575784 0.989970
vt 0.018329 0.989970
vt 0.018329 0.969546
vt 0.575784 0.969546
vt 0.577442 0.895430
vt 0.577442 0.842991
vt 0.597703 0.842991
vt 0.597703 0.895430
vt 0.578192 0.769685
vt 0.017242 0.768308
vt 0.017293 0.747756
vt 0.578243 0.749133
vt 0.577881 0.896620
vt 0.016931 0.895244
vt 0.017062 0.842052
vt 0.578012 0.843428
vt 0.017112 0.821500
vt 0.578062 0.822876
vt 0.598564 0.843479
vt 0.598433 0.896670
vt 0.638077 0.763617
vt 0.679435 0.763617
vt 0.679435 0.993807
vt 0.638077 0.993807
vt 0.734233 0.993807
vt 0.692875 0.993807
vt 0.692876 0.763617
vt 0.734233 0.763617
vt 0.624637 0.993807
vt 0.624637 0.763617
vt 0.735528 0.993564
vt 0.694145 0.993896
vt 0.692298 0.763562
vt 0.733682 0.763230
vt 0.637466 0.764001
vt 0.678849 0.763669
vt 0.680696 0.994004
vt 0.639312 0.994336
vt 0.625863 0.994444
vt 0.624017 0.764109
vt 0.031060 0.036323
vt 0.044147 0.036323
vt 0.044146 0.481118
vt 0.031060 0.481118
vt 0.044146 0.494205
vt 0.392535 0.481119
vt 0.392535 0.494206
vt 0.405621 0.481119
vt 0.392535 0.036324
vt 0.405621 0.036324
vt 0.392535 0.023237
vt 0.044147 0.023236
vt 0.936586 0.036721
vt 0.935907 0.368169
vt 0.512741 0.367301
vt 0.513420 0.035854
vt 0.951146 0.009739
vt 0.951111 0.017866
vt 0.485455 0.017866
vt 0.485489 0.009739
vt 0.478955 0.017860
vt 0.485455 0.390255
vt 0.478955 0.390249
vt 0.485420 0.398382
vt 0.951111 0.390255
vt 0.951076 0.398382
vt 0.957611 0.390261
vt 0.957611 0.017873
vt 0.934557 0.035147
vt 0.934557 0.366867
vt 0.519756 0.366866
vt 0.519756 0.035147
vt 0.991419 0.423800
vt 0.991419 0.738447
vt 0.546580 0.738447
vt 0.546580 0.423800
vt 0.038299 0.731636
vt 0.038299 0.505692
vt 0.373692 0.505692
vt 0.373692 0.731636
vt 0.039456 0.731960
vt 0.041661 0.506026
vt 0.377038 0.509298
vt 0.374834 0.735231
s 1
usemtl 001
f 117/173/12 118/174/12 120/175/12 119/176/12
f 119/176/13 120/175/13 124/177/13 123/178/13
f 123/178/14 124/177/14 122/179/14 121/180/14
f 121/181/15 122/182/15 118/174/15 117/173/15
f 119/183/16 123/184/16 121/181/16 117/173/16
f 125/185/12 126/186/12 128/187/12 127/188/12
f 127/188/13 128/187/13 132/189/13 131/190/13
f 131/190/14 132/189/14 130/191/14 129/192/14
f 129/192/15 130/191/15 126/193/15 125/194/15
f 127/195/16 131/196/16 129/192/16 125/194/16
f 133/197/12 134/198/12 136/199/12 135/200/12
f 135/200/13 136/199/13 140/201/13 139/202/13
f 139/203/14 140/204/14 138/205/14 137/206/14
f 137/206/15 138/205/15 134/198/15 133/197/15
f 135/207/16 139/208/16 137/209/16 133/210/16
f 141/211/12 142/212/12 144/213/12 143/214/12
f 143/215/13 144/216/13 148/217/13 147/218/13
f 147/218/14 148/217/14 146/219/14 145/220/14
f 145/220/15 146/219/15 142/212/15 141/211/15
f 143/215/16 147/218/16 145/221/16 141/222/16
f 151/223/13 152/224/13 156/225/13 155/226/13
f 153/227/15 154/228/15 150/229/15 149/230/15
f 151/223/16 155/226/16 153/231/16 149/232/16
f 156/225/17 152/224/17 150/229/17 154/228/17
f 159/233/13 160/234/13 164/235/13 163/236/13
f 161/237/15 162/238/15 158/239/15 157/240/15
f 159/241/16 163/242/16 161/237/16 157/240/16
f 164/235/17 160/234/17 158/239/17 162/238/17
f 165/243/12 166/244/12 168/245/12 167/246/12
f 167/247/13 168/245/13 172/248/13 171/249/13
f 171/250/14 172/248/14 170/251/14 169/252/14
f 169/253/15 170/251/15 166/244/15 165/254/15
f 167/255/16 171/256/16 169/257/16 165/258/16
f 172/248/17 168/245/17 166/244/17 170/251/17
f 173/259/12 174/260/12 176/261/12 175/262/12
f 175/263/13 176/261/13 180/264/13 179/265/13
f 179/266/14 180/264/14 178/267/14 177/268/14
f 177/269/15 178/267/15 174/260/15 173/270/15
f 175/271/16 179/272/16 177/273/16 173/274/16
f 180/264/17 176/261/17 174/260/17 178/267/17
f 181/275/14 182/276/14 184/277/14 183/278/14
f 185/279/15 186/280/15 188/281/15 187/282/15
f 189/283/13 190/284/13 192/285/13 191/286/13
